<svg xmlns="http://www.w3.org/2000/svg" xmlns:xlink="http://www.w3.org/1999/xlink" width="460" height="140" version="1.1" viewBox="0 0 460 140"><title>Ludwig full</title><desc>Created with Sketch.</desc><g id="Logo-final" fill="none" fill-rule="evenodd" stroke="none" stroke-width="1"><g id="Ludwig-full" fill-rule="nonzero"><rect id="Background" width="460" height="140" x="0" y="0" fill="#404040"/><rect id="Rectangle" width="20" height="100" x="20" y="20" fill="#FFF"/><rect id="Rectangle" width="100" height="20" x="20" y="100" fill="#FFF"/><rect id="Rectangle" width="40" height="20" x="140" y="100" fill="#FFF"/><rect id="Rectangle" width="60" height="20" x="60" y="60" fill="#FFF"/><rect id="Rectangle" width="40" height="20" x="140" y="20" fill="#FFF"/><rect id="Rectangle" width="20" height="60" x="60" y="20" fill="#FFF"/><rect id="Rectangle" width="20" height="40" x="100" y="20" fill="#FFF"/><rect id="Rectangle" width="20" height="100" x="140" y="20" fill="#FFF"/><rect id="Rectangle" width="20" height="60" x="180" y="40" fill="#FFF"/><rect id="Rectangle" width="20" height="100" x="220" y="20" fill="#FFF"/><rect id="Rectangle" width="20" height="100" x="260" y="20" fill="#FFF"/><rect id="Rectangle" width="20" height="80" x="300" y="20" fill="#FFF"/><rect id="Rectangle" width="20" height="100" x="340" y="20" fill="#FFF"/><rect id="Rectangle" width="20" height="100" x="380" y="20" fill="#FFF"/><rect id="Rectangle" width="40" height="20" x="380" y="100" fill="#FFF"/><rect id="Rectangle" width="20" height="40" x="420" y="80" fill="#FFF"/><rect id="Rectangle" width="30" height="20" x="410" y="60" fill="#FFF"/><rect id="Rectangle" width="60" height="20" x="380" y="20" fill="#FFF"/><rect id="Rectangle" width="100" height="20" x="220" y="100" fill="#FFF"/><polygon id="Path" fill="#FFF" points="180 100 188.693 100.144 200 111.79 200 120 180 120" transform="translate(190.000000, 110.000000) scale(1, -1) translate(-190.000000, -110.000000)"/><polygon id="Path" fill="#FFF" points="180 20 188.693 20.144 200 31.79 200 40 180 40"/></g></g></svg>