<svg xmlns="http://www.w3.org/2000/svg" xmlns:xlink="http://www.w3.org/1999/xlink" width="500" height="180" version="1.1" viewBox="0 0 500 180"><title>Ludwig empty</title><desc>Created with Sketch.</desc><g id="Logo-final" fill="none" fill-rule="evenodd" stroke="none" stroke-width="1"><g id="Ludwig-empty" fill-rule="nonzero"><rect id="Background" width="460" height="140" x="20" y="20" fill="#FFF"/><rect id="Rectangle" width="20" height="100" x="40" y="40" fill="#404040"/><rect id="Rectangle" width="100" height="20" x="40" y="120" fill="#404040"/><rect id="Rectangle" width="60" height="20" x="80" y="80" fill="#404040"/><rect id="Rectangle" width="40" height="20" x="160" y="120" fill="#404040"/><rect id="Rectangle" width="60" height="20" x="80" y="80" fill="#404040"/><rect id="Rectangle" width="40" height="20" x="160" y="40" fill="#404040"/><rect id="Rectangle" width="20" height="60" x="80" y="40" fill="#404040"/><rect id="Rectangle" width="20" height="60" x="120" y="40" fill="#404040"/><rect id="Rectangle" width="20" height="100" x="160" y="40" fill="#404040"/><rect id="Rectangle" width="20" height="60" x="200" y="60" fill="#404040"/><rect id="Rectangle" width="20" height="100" x="240" y="40" fill="#404040"/><rect id="Rectangle" width="20" height="100" x="280" y="40" fill="#404040"/><rect id="Rectangle" width="20" height="100" x="320" y="40" fill="#404040"/><rect id="Rectangle" width="20" height="100" x="360" y="40" fill="#404040"/><rect id="Rectangle" width="20" height="100" x="400" y="40" fill="#404040"/><rect id="Rectangle" width="60" height="20" x="400" y="120" fill="#404040"/><rect id="Rectangle" width="20" height="40" x="440" y="100" fill="#404040"/><rect id="Rectangle" width="30" height="20" x="430" y="80" fill="#404040"/><rect id="Rectangle" width="60" height="20" x="400" y="40" fill="#404040"/><rect id="Rectangle" width="100" height="20" x="240" y="120" fill="#404040"/><rect id="Rectangle" width="500" height="20" x="0" y="160" fill="#404040"/><rect id="Rectangle" width="500" height="20" x="0" y="0" fill="#404040"/><rect id="Rectangle" width="20" height="180" x="0" y="0" fill="#404040"/><rect id="Rectangle" width="20" height="180" x="480" y="0" fill="#404040"/><polygon id="Path" fill="#404040" points="200 120 208.693 120.144 220 131.79 220 140 200 140" transform="translate(210.000000, 130.000000) scale(1, -1) translate(-210.000000, -130.000000)"/><polygon id="Path" fill="#404040" points="200 40 208.693 40.144 220 51.79 220 60 200 60"/></g></g></svg>